<mxfile modified="2023-09-28T11:00:51.360Z" host="Electron" agent="Mozilla/5.0 (X11; Linux x86_64) AppleWebKit/537.36 (KHTML, like Gecko) draw.io/21.6.8 Chrome/114.0.5735.289 Electron/25.5.0 Safari/537.36" etag="MyIRisgNIzzOYjUOreLN" version="21.6.8" type="device">
  <diagram id="Ht1M8jgEwFfnCIfOTk4-" name="Page-1">
    <mxGraphModel dx="1370" dy="843" grid="1" gridSize="10" guides="1" tooltips="1" connect="1" arrows="1" fold="1" page="1" pageScale="1" pageWidth="1169" pageHeight="827" math="0" shadow="0">
      <root>
        <mxCell id="0" />
        <mxCell id="1" parent="0" />
        <mxCell id="S0FMRcBvVbhcuFp4wb8I-1" value="AWS Cloud" style="points=[[0,0],[0.25,0],[0.5,0],[0.75,0],[1,0],[1,0.25],[1,0.5],[1,0.75],[1,1],[0.75,1],[0.5,1],[0.25,1],[0,1],[0,0.75],[0,0.5],[0,0.25]];outlineConnect=0;gradientColor=none;html=1;whiteSpace=wrap;fontSize=12;fontStyle=0;container=1;pointerEvents=0;collapsible=0;recursiveResize=0;shape=mxgraph.aws4.group;grIcon=mxgraph.aws4.group_aws_cloud_alt;strokeColor=#232F3E;fillColor=none;verticalAlign=top;align=left;spacingLeft=30;fontColor=#232F3E;dashed=0;" parent="1" vertex="1">
          <mxGeometry x="140" y="60" width="860" height="759" as="geometry" />
        </mxCell>
        <mxCell id="S0FMRcBvVbhcuFp4wb8I-20" value="" style="outlineConnect=0;dashed=0;verticalLabelPosition=bottom;verticalAlign=top;align=center;html=1;shape=mxgraph.aws3.management_console;fillColor=#D2D3D3;gradientColor=none;" parent="S0FMRcBvVbhcuFp4wb8I-1" vertex="1">
          <mxGeometry x="196" y="571" width="88" height="83" as="geometry" />
        </mxCell>
        <mxCell id="S0FMRcBvVbhcuFp4wb8I-3" value="" style="sketch=0;points=[[0,0,0],[0.25,0,0],[0.5,0,0],[0.75,0,0],[1,0,0],[0,1,0],[0.25,1,0],[0.5,1,0],[0.75,1,0],[1,1,0],[0,0.25,0],[0,0.5,0],[0,0.75,0],[1,0.25,0],[1,0.5,0],[1,0.75,0]];outlineConnect=0;fontColor=#232F3E;gradientColor=#F78E04;gradientDirection=north;fillColor=#D05C17;strokeColor=#ffffff;dashed=0;verticalLabelPosition=bottom;verticalAlign=top;align=center;html=1;fontSize=12;fontStyle=0;aspect=fixed;shape=mxgraph.aws4.resourceIcon;resIcon=mxgraph.aws4.ec2;" parent="S0FMRcBvVbhcuFp4wb8I-1" vertex="1">
          <mxGeometry x="453.25" y="179" width="78" height="78" as="geometry" />
        </mxCell>
        <mxCell id="S0FMRcBvVbhcuFp4wb8I-4" value="" style="sketch=0;points=[[0,0,0],[0.25,0,0],[0.5,0,0],[0.75,0,0],[1,0,0],[0,1,0],[0.25,1,0],[0.5,1,0],[0.75,1,0],[1,1,0],[0,0.25,0],[0,0.5,0],[0,0.75,0],[1,0.25,0],[1,0.5,0],[1,0.75,0]];outlineConnect=0;fontColor=#232F3E;gradientColor=#F78E04;gradientDirection=north;fillColor=#D05C17;strokeColor=#ffffff;dashed=0;verticalLabelPosition=bottom;verticalAlign=top;align=center;html=1;fontSize=12;fontStyle=0;aspect=fixed;shape=mxgraph.aws4.resourceIcon;resIcon=mxgraph.aws4.ec2;" parent="S0FMRcBvVbhcuFp4wb8I-1" vertex="1">
          <mxGeometry x="201" y="416" width="78" height="78" as="geometry" />
        </mxCell>
        <mxCell id="S0FMRcBvVbhcuFp4wb8I-5" value="" style="sketch=0;points=[[0,0,0],[0.25,0,0],[0.5,0,0],[0.75,0,0],[1,0,0],[0,1,0],[0.25,1,0],[0.5,1,0],[0.75,1,0],[1,1,0],[0,0.25,0],[0,0.5,0],[0,0.75,0],[1,0.25,0],[1,0.5,0],[1,0.75,0]];outlineConnect=0;fontColor=#232F3E;gradientColor=#F78E04;gradientDirection=north;fillColor=#D05C17;strokeColor=#ffffff;dashed=0;verticalLabelPosition=bottom;verticalAlign=top;align=center;html=1;fontSize=12;fontStyle=0;aspect=fixed;shape=mxgraph.aws4.resourceIcon;resIcon=mxgraph.aws4.ec2;" parent="S0FMRcBvVbhcuFp4wb8I-1" vertex="1">
          <mxGeometry x="692" y="416" width="78" height="78" as="geometry" />
        </mxCell>
        <mxCell id="S0FMRcBvVbhcuFp4wb8I-6" value="" style="sketch=0;points=[[0,0,0],[0.25,0,0],[0.5,0,0],[0.75,0,0],[1,0,0],[0,1,0],[0.25,1,0],[0.5,1,0],[0.75,1,0],[1,1,0],[0,0.25,0],[0,0.5,0],[0,0.75,0],[1,0.25,0],[1,0.5,0],[1,0.75,0]];outlineConnect=0;fontColor=#232F3E;gradientColor=#F78E04;gradientDirection=north;fillColor=#D05C17;strokeColor=#ffffff;dashed=0;verticalLabelPosition=bottom;verticalAlign=top;align=center;html=1;fontSize=12;fontStyle=0;aspect=fixed;shape=mxgraph.aws4.resourceIcon;resIcon=mxgraph.aws4.ec2;" parent="S0FMRcBvVbhcuFp4wb8I-1" vertex="1">
          <mxGeometry x="453" y="416" width="78" height="78" as="geometry" />
        </mxCell>
        <mxCell id="S0FMRcBvVbhcuFp4wb8I-9" value="" style="edgeStyle=segmentEdgeStyle;endArrow=classic;html=1;curved=0;rounded=0;endSize=8;startSize=8;entryX=0.5;entryY=0;entryDx=0;entryDy=0;entryPerimeter=0;" parent="S0FMRcBvVbhcuFp4wb8I-1" target="S0FMRcBvVbhcuFp4wb8I-4" edge="1">
          <mxGeometry width="50" height="50" relative="1" as="geometry">
            <mxPoint x="491" y="330" as="sourcePoint" />
            <mxPoint x="240" y="410" as="targetPoint" />
            <Array as="points">
              <mxPoint x="240" y="330" />
            </Array>
          </mxGeometry>
        </mxCell>
        <mxCell id="S0FMRcBvVbhcuFp4wb8I-10" value="EC2 instance Load Balancer" style="text;strokeColor=none;align=center;fillColor=none;html=1;verticalAlign=middle;whiteSpace=wrap;rounded=0;" parent="S0FMRcBvVbhcuFp4wb8I-1" vertex="1">
          <mxGeometry x="447" y="258" width="90" height="30" as="geometry" />
        </mxCell>
        <mxCell id="S0FMRcBvVbhcuFp4wb8I-11" value="" style="endArrow=classic;html=1;rounded=0;entryX=0.5;entryY=0;entryDx=0;entryDy=0;entryPerimeter=0;exitX=0.5;exitY=1;exitDx=0;exitDy=0;" parent="S0FMRcBvVbhcuFp4wb8I-1" source="S0FMRcBvVbhcuFp4wb8I-10" target="S0FMRcBvVbhcuFp4wb8I-6" edge="1">
          <mxGeometry width="50" height="50" relative="1" as="geometry">
            <mxPoint x="501" y="329" as="sourcePoint" />
            <mxPoint x="551" y="279" as="targetPoint" />
          </mxGeometry>
        </mxCell>
        <mxCell id="S0FMRcBvVbhcuFp4wb8I-12" value="EC2 instance 1" style="text;strokeColor=none;align=center;fillColor=none;html=1;verticalAlign=middle;whiteSpace=wrap;rounded=0;" parent="S0FMRcBvVbhcuFp4wb8I-1" vertex="1">
          <mxGeometry x="210" y="494" width="60" height="30" as="geometry" />
        </mxCell>
        <mxCell id="S0FMRcBvVbhcuFp4wb8I-13" value="EC2 instance 2" style="text;strokeColor=none;align=center;fillColor=none;html=1;verticalAlign=middle;whiteSpace=wrap;rounded=0;" parent="S0FMRcBvVbhcuFp4wb8I-1" vertex="1">
          <mxGeometry x="465" y="494" width="60" height="30" as="geometry" />
        </mxCell>
        <mxCell id="S0FMRcBvVbhcuFp4wb8I-14" value="EC2 instance 3" style="text;strokeColor=none;align=center;fillColor=none;html=1;verticalAlign=middle;whiteSpace=wrap;rounded=0;" parent="S0FMRcBvVbhcuFp4wb8I-1" vertex="1">
          <mxGeometry x="701" y="492" width="60" height="30" as="geometry" />
        </mxCell>
        <mxCell id="S0FMRcBvVbhcuFp4wb8I-16" value="" style="endArrow=none;dashed=1;html=1;rounded=0;exitX=0.5;exitY=0;exitDx=0;exitDy=0;exitPerimeter=0;entryX=0.5;entryY=1;entryDx=0;entryDy=0;" parent="S0FMRcBvVbhcuFp4wb8I-1" source="S0FMRcBvVbhcuFp4wb8I-20" target="S0FMRcBvVbhcuFp4wb8I-12" edge="1">
          <mxGeometry width="50" height="50" relative="1" as="geometry">
            <mxPoint x="239.5" y="539" as="sourcePoint" />
            <mxPoint x="240" y="530" as="targetPoint" />
            <Array as="points" />
          </mxGeometry>
        </mxCell>
        <mxCell id="S0FMRcBvVbhcuFp4wb8I-17" value="" style="rounded=1;whiteSpace=wrap;html=1;strokeWidth=2;fillWeight=4;hachureGap=8;hachureAngle=45;fillColor=#999900;strokeColor=none;" parent="S0FMRcBvVbhcuFp4wb8I-1" vertex="1">
          <mxGeometry x="201" y="575" width="78.5" height="50" as="geometry" />
        </mxCell>
        <mxCell id="S0FMRcBvVbhcuFp4wb8I-24" value="" style="outlineConnect=0;dashed=0;verticalLabelPosition=bottom;verticalAlign=top;align=center;html=1;shape=mxgraph.aws3.management_console;fillColor=#D2D3D3;gradientColor=none;" parent="S0FMRcBvVbhcuFp4wb8I-1" vertex="1">
          <mxGeometry x="451" y="572" width="88" height="83" as="geometry" />
        </mxCell>
        <mxCell id="S0FMRcBvVbhcuFp4wb8I-25" value="" style="outlineConnect=0;dashed=0;verticalLabelPosition=bottom;verticalAlign=top;align=center;html=1;shape=mxgraph.aws3.management_console;fillColor=#D2D3D3;gradientColor=none;" parent="S0FMRcBvVbhcuFp4wb8I-1" vertex="1">
          <mxGeometry x="694.25" y="572" width="88" height="83" as="geometry" />
        </mxCell>
        <mxCell id="S0FMRcBvVbhcuFp4wb8I-28" value="" style="rounded=1;whiteSpace=wrap;html=1;strokeWidth=2;fillWeight=4;hachureGap=8;hachureAngle=45;fillColor=#0000CC;strokeColor=none;" parent="S0FMRcBvVbhcuFp4wb8I-1" vertex="1">
          <mxGeometry x="455.75" y="577" width="78.5" height="50" as="geometry" />
        </mxCell>
        <mxCell id="S0FMRcBvVbhcuFp4wb8I-27" value="" style="rounded=1;whiteSpace=wrap;html=1;strokeWidth=2;fillWeight=4;hachureGap=8;hachureAngle=45;fillColor=#CC0000;strokeColor=none;" parent="S0FMRcBvVbhcuFp4wb8I-1" vertex="1">
          <mxGeometry x="699" y="576" width="78.5" height="50" as="geometry" />
        </mxCell>
        <mxCell id="S0FMRcBvVbhcuFp4wb8I-30" value="" style="endArrow=none;dashed=1;html=1;rounded=0;exitX=0.5;exitY=0;exitDx=0;exitDy=0;exitPerimeter=0;" parent="S0FMRcBvVbhcuFp4wb8I-1" source="S0FMRcBvVbhcuFp4wb8I-24" edge="1">
          <mxGeometry width="50" height="50" relative="1" as="geometry">
            <mxPoint x="490" y="572" as="sourcePoint" />
            <mxPoint x="495" y="520" as="targetPoint" />
            <Array as="points" />
          </mxGeometry>
        </mxCell>
        <mxCell id="S0FMRcBvVbhcuFp4wb8I-32" value="" style="endArrow=none;dashed=1;html=1;rounded=0;entryX=0.5;entryY=1;entryDx=0;entryDy=0;" parent="S0FMRcBvVbhcuFp4wb8I-1" edge="1">
          <mxGeometry width="50" height="50" relative="1" as="geometry">
            <mxPoint x="733" y="570" as="sourcePoint" />
            <mxPoint x="733" y="522" as="targetPoint" />
            <Array as="points" />
          </mxGeometry>
        </mxCell>
        <mxCell id="S0FMRcBvVbhcuFp4wb8I-33" value="html page1" style="text;strokeColor=none;align=center;fillColor=none;html=1;verticalAlign=middle;whiteSpace=wrap;rounded=0;" parent="S0FMRcBvVbhcuFp4wb8I-1" vertex="1">
          <mxGeometry x="211.25" y="655" width="60" height="30" as="geometry" />
        </mxCell>
        <mxCell id="S0FMRcBvVbhcuFp4wb8I-34" value="html page2" style="text;strokeColor=none;align=center;fillColor=none;html=1;verticalAlign=middle;whiteSpace=wrap;rounded=0;" parent="S0FMRcBvVbhcuFp4wb8I-1" vertex="1">
          <mxGeometry x="466" y="655" width="60" height="30" as="geometry" />
        </mxCell>
        <mxCell id="S0FMRcBvVbhcuFp4wb8I-35" value="html page3" style="text;strokeColor=none;align=center;fillColor=none;html=1;verticalAlign=middle;whiteSpace=wrap;rounded=0;" parent="S0FMRcBvVbhcuFp4wb8I-1" vertex="1">
          <mxGeometry x="710" y="655" width="60" height="30" as="geometry" />
        </mxCell>
        <mxCell id="S0FMRcBvVbhcuFp4wb8I-36" value="" style="sketch=0;outlineConnect=0;fontColor=#232F3E;gradientColor=none;fillColor=#232F3D;strokeColor=none;dashed=0;verticalLabelPosition=bottom;verticalAlign=top;align=center;html=1;fontSize=12;fontStyle=0;aspect=fixed;pointerEvents=1;shape=mxgraph.aws4.globe;" parent="S0FMRcBvVbhcuFp4wb8I-1" vertex="1">
          <mxGeometry x="475" y="582" width="40" height="40" as="geometry" />
        </mxCell>
        <mxCell id="S0FMRcBvVbhcuFp4wb8I-37" value="" style="sketch=0;outlineConnect=0;fontColor=#232F3E;gradientColor=none;fillColor=#232F3D;strokeColor=none;dashed=0;verticalLabelPosition=bottom;verticalAlign=top;align=center;html=1;fontSize=12;fontStyle=0;aspect=fixed;pointerEvents=1;shape=mxgraph.aws4.globe;" parent="S0FMRcBvVbhcuFp4wb8I-1" vertex="1">
          <mxGeometry x="220" y="580" width="40" height="40" as="geometry" />
        </mxCell>
        <mxCell id="S0FMRcBvVbhcuFp4wb8I-38" value="" style="sketch=0;outlineConnect=0;fontColor=#232F3E;gradientColor=none;fillColor=#232F3D;strokeColor=none;dashed=0;verticalLabelPosition=bottom;verticalAlign=top;align=center;html=1;fontSize=12;fontStyle=0;aspect=fixed;pointerEvents=1;shape=mxgraph.aws4.globe;" parent="S0FMRcBvVbhcuFp4wb8I-1" vertex="1">
          <mxGeometry x="718" y="581" width="40" height="40" as="geometry" />
        </mxCell>
        <mxCell id="S0FMRcBvVbhcuFp4wb8I-39" value="" style="endArrow=none;dashed=1;html=1;rounded=0;shadow=0;anchorPointDirection=1;snapToPoint=0;" parent="S0FMRcBvVbhcuFp4wb8I-1" edge="1">
          <mxGeometry width="50" height="50" relative="1" as="geometry">
            <mxPoint x="270" y="231" as="sourcePoint" />
            <mxPoint x="450" y="231" as="targetPoint" />
            <Array as="points" />
          </mxGeometry>
        </mxCell>
        <mxCell id="S0FMRcBvVbhcuFp4wb8I-88" style="edgeStyle=orthogonalEdgeStyle;rounded=0;orthogonalLoop=1;jettySize=auto;html=1;exitX=0.135;exitY=0.5;exitDx=0;exitDy=0;exitPerimeter=0;entryX=1.105;entryY=0.575;entryDx=0;entryDy=0;entryPerimeter=0;endArrow=none;endFill=0;dashed=1;" parent="S0FMRcBvVbhcuFp4wb8I-1" source="S0FMRcBvVbhcuFp4wb8I-43" target="S0FMRcBvVbhcuFp4wb8I-86" edge="1">
          <mxGeometry relative="1" as="geometry" />
        </mxCell>
        <mxCell id="S0FMRcBvVbhcuFp4wb8I-43" value="" style="shape=mxgraph.cisco.computers_and_peripherals.web_browser;html=1;pointerEvents=1;dashed=0;fillColor=#036897;strokeColor=#ffffff;strokeWidth=2;verticalLabelPosition=bottom;verticalAlign=top;align=center;outlineConnect=0;" parent="S0FMRcBvVbhcuFp4wb8I-1" vertex="1">
          <mxGeometry x="197" y="194" width="70" height="74" as="geometry" />
        </mxCell>
        <mxCell id="S0FMRcBvVbhcuFp4wb8I-44" value="Web Browser" style="text;strokeColor=none;align=center;fillColor=none;html=1;verticalAlign=middle;whiteSpace=wrap;rounded=0;" parent="S0FMRcBvVbhcuFp4wb8I-1" vertex="1">
          <mxGeometry x="175" y="260" width="110" height="30" as="geometry" />
        </mxCell>
        <mxCell id="S0FMRcBvVbhcuFp4wb8I-63" value="13.233.80.211 (ip)" style="text;strokeColor=none;align=center;fillColor=none;html=1;verticalAlign=middle;whiteSpace=wrap;rounded=0;" parent="S0FMRcBvVbhcuFp4wb8I-1" vertex="1">
          <mxGeometry x="685" y="685" width="112" height="30" as="geometry" />
        </mxCell>
        <mxCell id="S0FMRcBvVbhcuFp4wb8I-64" value="After Network Refresh" style="text;strokeColor=none;align=center;fillColor=none;html=1;verticalAlign=middle;whiteSpace=wrap;rounded=0;" parent="S0FMRcBvVbhcuFp4wb8I-1" vertex="1">
          <mxGeometry x="710" y="61" width="140" height="30" as="geometry" />
        </mxCell>
        <mxCell id="S0FMRcBvVbhcuFp4wb8I-66" value="" style="shape=waypoint;sketch=0;size=6;pointerEvents=1;points=[];fillColor=none;resizable=0;rotatable=0;perimeter=centerPerimeter;snapToPoint=1;" parent="S0FMRcBvVbhcuFp4wb8I-1" vertex="1">
          <mxGeometry x="694.25" y="66" width="20" height="20" as="geometry" />
        </mxCell>
        <mxCell id="S0FMRcBvVbhcuFp4wb8I-70" value="EC2 instance contents" style="points=[[0,0],[0.25,0],[0.5,0],[0.75,0],[1,0],[1,0.25],[1,0.5],[1,0.75],[1,1],[0.75,1],[0.5,1],[0.25,1],[0,1],[0,0.75],[0,0.5],[0,0.25]];outlineConnect=0;gradientColor=none;html=1;whiteSpace=wrap;fontSize=12;fontStyle=0;container=1;pointerEvents=0;collapsible=0;recursiveResize=0;shape=mxgraph.aws4.group;grIcon=mxgraph.aws4.group_ec2_instance_contents;strokeColor=#D86613;fillColor=none;verticalAlign=top;align=left;spacingLeft=30;fontColor=#D86613;dashed=1;" parent="S0FMRcBvVbhcuFp4wb8I-1" vertex="1">
          <mxGeometry x="20" y="541" width="822" height="150.5" as="geometry" />
        </mxCell>
        <mxCell id="S0FMRcBvVbhcuFp4wb8I-72" value="instances Connected With Load Balancer" style="text;strokeColor=none;align=center;fillColor=none;html=1;verticalAlign=middle;whiteSpace=wrap;rounded=0;" parent="S0FMRcBvVbhcuFp4wb8I-1" vertex="1">
          <mxGeometry x="271.25" y="330" width="160" height="30" as="geometry" />
        </mxCell>
        <mxCell id="S0FMRcBvVbhcuFp4wb8I-73" value="instances Connected With Load Balancer" style="text;strokeColor=none;align=center;fillColor=none;html=1;verticalAlign=middle;whiteSpace=wrap;rounded=0;" parent="S0FMRcBvVbhcuFp4wb8I-1" vertex="1">
          <mxGeometry x="525" y="330" width="160" height="30" as="geometry" />
        </mxCell>
        <mxCell id="S0FMRcBvVbhcuFp4wb8I-86" value="" style="sketch=0;outlineConnect=0;fontColor=#232F3E;gradientColor=none;fillColor=#232F3D;strokeColor=none;dashed=0;verticalLabelPosition=bottom;verticalAlign=top;align=center;html=1;fontSize=12;fontStyle=0;aspect=fixed;pointerEvents=1;shape=mxgraph.aws4.user;" parent="S0FMRcBvVbhcuFp4wb8I-1" vertex="1">
          <mxGeometry x="40" y="208" width="40" height="40" as="geometry" />
        </mxCell>
        <mxCell id="S0FMRcBvVbhcuFp4wb8I-87" value="User" style="text;strokeColor=none;align=center;fillColor=none;html=1;verticalAlign=middle;whiteSpace=wrap;rounded=0;" parent="S0FMRcBvVbhcuFp4wb8I-1" vertex="1">
          <mxGeometry x="30.5" y="245" width="60" height="30" as="geometry" />
        </mxCell>
        <mxCell id="S0FMRcBvVbhcuFp4wb8I-61" value="13.233.80.144 (ip)" style="text;strokeColor=none;align=center;fillColor=none;html=1;verticalAlign=middle;whiteSpace=wrap;rounded=0;" parent="S0FMRcBvVbhcuFp4wb8I-1" vertex="1">
          <mxGeometry x="186.5" y="685" width="107" height="30" as="geometry" />
        </mxCell>
        <mxCell id="S0FMRcBvVbhcuFp4wb8I-62" value="13.233.80.188 (ip)" style="text;strokeColor=none;align=center;fillColor=none;html=1;verticalAlign=middle;whiteSpace=wrap;rounded=0;" parent="S0FMRcBvVbhcuFp4wb8I-1" vertex="1">
          <mxGeometry x="451" y="685" width="100" height="30" as="geometry" />
        </mxCell>
        <mxCell id="S0FMRcBvVbhcuFp4wb8I-54" value="" style="edgeStyle=segmentEdgeStyle;endArrow=classic;html=1;curved=0;rounded=0;endSize=8;startSize=8;entryX=0.5;entryY=0;entryDx=0;entryDy=0;entryPerimeter=0;" parent="1" target="S0FMRcBvVbhcuFp4wb8I-5" edge="1">
          <mxGeometry width="50" height="50" relative="1" as="geometry">
            <mxPoint x="631" y="339" as="sourcePoint" />
            <mxPoint x="681" y="279" as="targetPoint" />
            <Array as="points">
              <mxPoint x="871" y="339" />
            </Array>
          </mxGeometry>
        </mxCell>
        <mxCell id="S0FMRcBvVbhcuFp4wb8I-82" value="" style="triangle;whiteSpace=wrap;html=1;" parent="1" vertex="1">
          <mxGeometry x="584" y="285" width="10" height="11" as="geometry" />
        </mxCell>
        <mxCell id="S0FMRcBvVbhcuFp4wb8I-89" value="" style="triangle;whiteSpace=wrap;html=1;" parent="1" vertex="1">
          <mxGeometry x="337" y="285" width="10" height="11" as="geometry" />
        </mxCell>
      </root>
    </mxGraphModel>
  </diagram>
</mxfile>
